# xmcd CD database file
#
# Track frame offsets:
#	150
#	10120
#	20742
#	34995
#	46350
#	56787
#	72167
#	81830
#	94427
#	106547
#	116790
#	131120
#
# Disc length: 1922 seconds
#
# Revision: 0
# Processed by: cddbd v1.4PL0 Copyright (c) Steve Scherf et al.
# Submitted via: CdAid 2001.05.15.01
#
DISCID=a507800c
DTITLE=Joe Grkman - Grkmania - The Button Box Polka Craze
DYEAR=1900
DGENRE=
TTITLE0=Squeezed That Box
TTITLE1=Polka Rainbow
TTITLE2=Shining Stars
TTITLE3=A Bit of Hope
TTITLE4=Sounds from Days Gone By
TTITLE5=My Honey's Song
TTITLE6=Dreamy Eyes
TTITLE7=Kicking' Botton Box
TTITLE8=There's No Doubt (Wedding Waltz from Blue Mountain)
TTITLE9=Roll Out The Bottons
TTITLE10=Waltz Your Cares Away
TTITLE11=Grandpa's Coal Mining Song (Now it's Time for Slivovitz)
EXTD=
EXTT0=
EXTT1=
EXTT2=
EXTT3=
EXTT4=
EXTT5=
EXTT6=
EXTT7=
EXTT8=
EXTT9=
EXTT10=
EXTT11=
PLAYORDER=
